<?xml version="1.0" standalone="no"?>
<!DOCTYPE svg PUBLIC "-//W3C//DTD SVG 1.1//EN" "http://www.w3.org/Graphics/SVG/1.1/DTD/svg11.dtd" >
<svg xmlns="http://www.w3.org/2000/svg" xmlns:xlink="http://www.w3.org/1999/xlink" version="1.1">
<metadata></metadata>
<defs>
<font id="walkway_oblique_semiboldRg" horiz-adv-x="1075" >
<font-face units-per-em="2048" ascent="1638" descent="-410" />
<missing-glyph horiz-adv-x="724" />
<glyph horiz-adv-x="0" />
<glyph unicode="&#xd;" horiz-adv-x="724" />
<glyph unicode=" "  horiz-adv-x="724" />
<glyph unicode="&#x09;" horiz-adv-x="724" />
<glyph unicode="&#xa0;" horiz-adv-x="724" />
<glyph unicode="!" horiz-adv-x="397" d="M238 346l221 1043h73l-221 -1043h-73zM199 0q-37 0 -29 37l27 131q8 35 45 35t28 -35l-26 -131q-8 -37 -45 -37z" />
<glyph unicode="&#x22;" horiz-adv-x="598" d="M653 1120q-37 0 -28 35l39 186q8 35 45 35t28 -35l-39 -186q-8 -35 -45 -35zM416 1120q-35 0 -27 35l39 186q8 35 43 35q39 0 31 -35l-39 -186q-8 -35 -47 -35z" />
<glyph unicode="#" horiz-adv-x="1087" d="M1087 735h-184l-84 -182h182l-28 -68h-182l-72 -155h-74l72 155h-215l-72 -155h-74l72 155h-182l28 68h183l86 182h-187l33 68h182l72 155h74l-72 -155h215l70 155h74l-70 -155h182zM616 735l-86 -182h215l84 182h-213z" />
<glyph unicode="$" horiz-adv-x="1314" d="M831 -20l-26 -123h-74l25 112q-45 -4 -88 -4q-76 0 -140 10l-24 -118h-74l27 127q-317 76 -318 344q2 53 15 114l8 35h74l-7 -26q-12 -57 -12 -107q0 -227 256 -289l141 664q-293 72 -292 266q0 33 8 72q61 289 430 354l28 131h74l-24 -121q47 2 102 2q68 0 123 -6 l27 125h73l-28 -135q287 -63 286 -320q0 -49 -10 -108h-74q6 43 6 80q0 223 -223 278l-133 -622q160 -43 221 -84q106 -70 107 -197q0 -41 -10 -90q-33 -150 -179 -252q-127 -85 -295 -112zM1049 1350q-55 6 -123 6q-55 0 -105 -6l-123 -576l220 -43zM745 1339 q-295 -61 -342 -282q-6 -29 -6 -53q0 -147 232 -211zM1217 514q-53 72 -244 127l-127 -592q139 23 241 94q117 82 144 207q25 113 -14 164zM901 657l-217 45l-141 -659q63 -10 141 -10q43 0 86 6z" />
<glyph unicode="%" horiz-adv-x="1536" d="M332 0h-88l1292 1389h86zM1139 -39q-227 0 -228 225q0 61 17 138q78 371 368 370q227 0 228 -229q0 -61 -17 -141q-77 -363 -368 -363zM520 616q-227 0 -225 226q0 59 14 135q80 369 369 369q229 0 229 -230q0 -61 -18 -139q-76 -361 -369 -361zM1280 627 q-213 0 -276 -303q-14 -66 -15 -117q-2 -178 166 -178q213 0 277 295q14 70 14 122q0 181 -166 181zM662 1278q-211 0 -277 -301q-14 -68 -14 -119q0 -176 166 -176q215 0 276 295q16 68 16 121q1 180 -167 180z" />
<glyph unicode="&#x26;" horiz-adv-x="1234" d="M1004 -39l61 289q-12 -14 -21 -29q-225 -254 -503 -254q-154 0 -265 64q-137 76 -137 217q0 195 217 356q102 78 328 182q-188 102 -188 267q0 35 6 69q29 127 143 201q106 66 242 66q117 0 190 -46q92 -55 92 -161q0 -31 -8 -64q-41 -190 -467 -397q-223 -109 -299 -166 q-180 -137 -180 -293q0 -111 113 -174q94 -53 215 -53q274 0 452 235q102 135 135 287h74l-127 -596h-73zM877 1321q-104 0 -187 -49q-94 -55 -115 -152q-6 -29 -6 -55q0 -152 193 -244q332 166 332 342q0 80 -72 123q-59 35 -145 35z" />
<glyph unicode="'" horiz-adv-x="358" d="M416 1120q-35 0 -27 35l39 186q8 35 43 35q39 0 31 -35l-39 -186q-8 -35 -47 -35z" />
<glyph unicode="(" horiz-adv-x="477" d="M315 -344q-104 248 -104 541q0 180 43 383q111 522 455 923h79q-350 -401 -460 -923q-43 -201 -43 -383q0 -293 110 -541h-80z" />
<glyph unicode=")" horiz-adv-x="477" d="M4 -344h-80q360 403 471 924q41 193 41 368q0 301 -119 555h80q115 -244 115 -538q0 -184 -43 -385q-111 -527 -465 -924z" />
<glyph unicode="*" horiz-adv-x="696" d="M410 1270h2l135 -72l31 143q8 35 45 35t28 -35l-30 -145l165 74q8 4 19 4q20 0 29 -14q10 -33 -27 -50l-158 -67l129 -72q18 -10 15 -31q-6 -33 -43 -32q-10 0 -23 4l-129 73l-31 -143q-8 -35 -45 -35t-28 35l30 143l-164 -73q-12 -4 -22 -4q-37 0 -31 32q4 20 29 31 l162 72l-131 69q-33 16 -7 48q12 14 31 14q9 0 19 -4z" />
<glyph unicode="+" horiz-adv-x="1146" d="M713 481l-74 -344h-74l74 344h-391l14 68h391l72 338h74l-72 -338h393l-14 -68h-393z" />
<glyph unicode="," horiz-adv-x="536" d="M227 -160q-12 -27 -39 -26q-39 0 -32 30q0 4 4 15l151 293q16 33 47 24q35 -8 19 -43z" />
<glyph unicode="-" horiz-adv-x="716" d="M201 520l8 41h557l-8 -41h-557z" />
<glyph unicode="." horiz-adv-x="428" d="M215 -4q-37 0 -31 33l25 112q6 33 43 33t31 -33l-25 -112q-6 -33 -43 -33z" />
<glyph unicode="/" horiz-adv-x="716" d="M57 0h-77l1001 1421h78z" />
<glyph unicode="0" horiz-adv-x="1196" d="M594 -25q-190 0 -305 100.5t-115 286.5q0 63 16 140l74 344q49 238 219 383t410 145q190 0 301 -96q115 -102 115 -287q0 -68 -17 -145l-73 -344q-51 -238 -217 -382.5t-408 -144.5zM1219 846q14 66 14 123q0 160 -96.5 249t-259.5 89q-207 0 -351.5 -127t-187.5 -334 l-74 -344q-14 -66 -14 -125q0 -158 97 -246t259 -88q207 0 355 129q141 125 184 330z" />
<glyph unicode="1" horiz-adv-x="845" d="M578 0l258 1219l-344 -240h-115l489 344h66l-281 -1323h-73z" />
<glyph unicode="2" horiz-adv-x="1196" d="M102 0q84 373 545 616q80 41 322 168q207 106 231 232q8 31 8 57q0 113 -108 166q-82 39 -207 39q-418 0 -506 -410h-74q102 477 582 478q156 0 256 -50q129 -68 129 -209q0 -37 -8 -77q-37 -170 -406 -355q-174 -86 -280 -145q-131 -86 -234 -197q-125 -133 -153 -245 h936l-15 -68h-1018z" />
<glyph unicode="3" horiz-adv-x="1196" d="M604 -23q-195 0 -313 72q-143 88 -144 268q0 53 15 115l6 35h74l-13 -64q-8 -41 -8 -79q0 -143 127 -220q104 -59 262 -59q180 0 320 74q166 86 200 248q8 43 9 79q0 229 -357 230h-108l14 69h111q383 0 440 271q6 27 6 51q0 117 -123 170q-92 41 -223 41 q-442 0 -524 -385h-74q96 453 606 453q162 0 271 -50q143 -66 143 -209q0 -35 -8 -71q-49 -240 -314 -303q215 -55 213 -254q0 -43 -10 -92q-41 -193 -225 -299q-160 -91 -373 -91z" />
<glyph unicode="4" horiz-adv-x="1196" d="M971 451l-97 -451h-73l96 451h-758l627 874h78l-580 -807h647l172 807l72 -2l-170 -805h264l-14 -67h-264z" />
<glyph unicode="5" horiz-adv-x="1196" d="M586 -23q-442 0 -443 332q0 61 17 135h73q-12 -59 -12 -110q0 -289 381 -289q199 0 338 100q150 106 190 295q10 51 11 95q0 154 -121 233q-104 70 -266 70q-262 0 -430 -197h-78l174 682h909l-14 -68h-836l-129 -507q172 160 426 159q186 0 305 -84q135 -94 136 -272 q0 -51 -13 -109q-47 -221 -221 -346q-166 -119 -397 -119z" />
<glyph unicode="6" horiz-adv-x="1196" d="M1204 893q10 51 10 98q0 141 -102 217q-92 68 -240 68q-182 0 -313 -94q-139 -100 -176 -275l-51 -243q162 178 442 178q172 0 281 -74q123 -86 123 -250q0 -49 -13 -104q-43 -201 -209 -318q-156 -109 -366 -108q-170 0 -279 75q-123 86 -123 246q0 49 13 105l4 20 q4 14 6 17l98 462q43 201 211 316q156 109 369 108q172 0 278 -77q121 -88 121 -252q0 -53 -12 -115h-72zM760 780q-184 0 -314 -92q-137 -98 -174 -274q-10 -49 -10 -92q0 -137 105 -211q92 -63 237 -64q182 0 314 94q139 98 176 273q10 47 10 90q0 139 -107 213 q-92 63 -237 63z" />
<glyph unicode="7" horiz-adv-x="1196" d="M444 0h-77l893 1255h-873l14 68h983z" />
<glyph unicode="8" horiz-adv-x="1230" d="M612 -23q-193 0 -311 60q-160 78 -160 248q0 45 11 94q61 283 389 350q-193 59 -193 211q0 29 8 59q39 184 203 273q137 74 344 74q166 0 271 -52q139 -68 139 -217q0 -37 -8 -78q-43 -197 -304 -270q250 -57 250 -264q0 -43 -10 -90q-45 -209 -235 -312 q-161 -86 -394 -86zM889 1278q-399 0 -459 -281q-6 -20 -6 -39q0 -109 133 -161q98 -41 221 -41q147 0 273 55q154 68 180 190q8 35 8 66q0 211 -350 211zM764 688q-473 0 -539 -311q-8 -39 -8 -74q0 -143 141 -209q104 -49 269 -49q199 0 336 70q168 86 204 262q8 39 9 72 q0 239 -412 239z" />
<glyph unicode="9" horiz-adv-x="1196" d="M1274 893l-107 -502q-43 -199 -213 -315q-158 -106 -368 -107q-172 0 -279 76q-121 86 -121 248q0 55 15 117h71q-12 -55 -12 -103q0 -139 102 -213q90 -66 238 -65q178 0 315.5 98t174.5 268l61 285q-164 -178 -444 -178q-170 0 -277 76q-123 86 -123 245q0 49 10 105 q43 203 207 317q156 111 369 111q168 0 276 -78q125 -88 125 -248q0 -49 -12 -102l-4 -21q-4 -10 -4 -14zM879 1296q-184 0 -316 -94q-137 -100 -174 -274q-10 -49 -10 -92q0 -137 106 -209q92 -63 236 -64q182 0 317.5 95.5t171.5 269.5q10 47 11 90q0 141 -105 213 q-92 65 -237 65z" />
<glyph unicode=":" horiz-adv-x="499" d="M412 750q-37 0 -29 36l27 129q8 37 45 37q35 0 26 -37l-24 -129q-8 -36 -45 -36zM252 -4q-37 0 -31 37l29 129q8 37 45 37q33 0 27 -37l-27 -129q-6 -37 -43 -37z" />
<glyph unicode=";" horiz-adv-x="514" d="M453 750q-37 0 -29 36l27 129q8 37 45 37t28 -37l-26 -129q-8 -36 -45 -36zM217 -158q-14 -29 -41 -28q-39 0 -33 32q2 6 7 15l153 309q16 35 47 27q35 -10 19 -45z" />
<glyph unicode="&#x3c;" horiz-adv-x="1095" d="M182 461l13 63l989 367l-15 -72l-886 -327l747 -328l-14 -72z" />
<glyph unicode="=" horiz-adv-x="1290" d="M211 578l14 63h1116l-14 -63h-1116zM160 342l14 64h1116l-14 -64h-1116z" />
<glyph unicode="&#x3e;" horiz-adv-x="1095" d="M104 92l15 72l885 328l-746 327l14 72l834 -367l-12 -63z" />
<glyph unicode="?" d="M928 743q-168 -117 -223 -190q-37 -47 -56 -143l-14 -64h-76l10 51q43 203 285 371q141 100 197 158q92 98 92 221q0 111 -107 166q-84 41 -209 41q-369 0 -481 -355l-59 39q66 186 212 284.5t347 98.5q145 0 248 -57q125 -72 125 -205q0 -215 -291 -416zM520 0 q-35 0 -26 37l26 131q8 35 43 35q39 0 31 -35l-27 -131q-8 -37 -47 -37z" />
<glyph unicode="@" horiz-adv-x="1720" d="M1573 444q-55 -57 -135 -102q-92 -53 -160 -53q-63 0 -64 57q0 12 3.5 26.5t29.5 94.5q-184 -205 -440 -207q-203 -2 -275 139q-29 59 -28 136q0 43 10 92q49 231 209 374q168 154 397 156q264 4 299 -196l68 196h69l-268 -778q0 -16 21 -17q47 0 123 50q61 43 102 90 q188 219 188 432q0 205 -170 321q-147 102 -362 103q-309 0 -547 -180q-246 -184 -309 -482q-16 -78 -17 -149q0 -195 127 -328q166 -176 463 -176q184 0 373 82q197 86 307 221h84q-121 -164 -339 -266.5t-427 -102.5q-334 0 -520 195q-147 152 -147 371q0 78 18 164 q70 319 342 522q264 195 598 194q244 0 412 -114q193 -131 192 -363q0 -61 -14 -129q-43 -199 -213 -373zM1096 1094q-190 -2 -336 -140q-137 -129 -178 -321q-10 -47 -11 -88q0 -227 252 -226q168 2 316 119q137 111 196 275q31 84 31 161q0 224 -270 220z" />
<glyph unicode="A" horiz-adv-x="1302" d="M1235 0l-105 446h-761l-297 -446h-86l934 1389h75l320 -1389h-80zM936 1286l-520 -772h700z" />
<glyph unicode="B" horiz-adv-x="1314" d="M735 0h-649l295 1389h676q158 0 258 -58q125 -70 125 -215q0 -41 -10 -86q-47 -217 -326 -303q242 -55 242 -258q0 -41 -11 -90q-41 -197 -225 -295q-156 -84 -375 -84zM1038 1321h-598l-118 -563h596q158 0 274 65q135 74 166 217q6 33 6 62q0 117 -111 174 q-86 45 -215 45zM899 690h-592l-133 -622h600q176 0 305 69q152 82 185 240q8 37 8 69q0 133 -127 197q-99 47 -246 47z" />
<glyph unicode="C" horiz-adv-x="1472" d="M1563 1110q-102 225 -455 225q-303 0 -518 -174t-279 -469q-20 -90 -20 -168q0 -229 147 -354q137 -117 375 -117q338 0 555 230l55 -41q-246 -256 -622 -256q-330 0 -482 188q-106 131 -104 328q0 84 21 182q70 332 308 525.5t578 193.5q391 0 510 -252z" />
<glyph unicode="D" horiz-adv-x="1392" d="M567 0h-465l295 1389h543q553 0 553 -484q0 -96 -25 -213q-72 -336 -317 -518q-236 -174 -584 -174zM924 1321h-467l-267 -1253h398q317 0 526 155q215 164 281 469q23 109 22 199q1 430 -493 430z" />
<glyph unicode="E" horiz-adv-x="1155" d="M102 0l295 1389h1026l-14 -68h-954l-119 -563h846l-15 -66h-845l-134 -624h965l-14 -68h-1037z" />
<glyph unicode="F" horiz-adv-x="1034" d="M455 1321l-119 -563h754l-15 -66h-753l-148 -692h-72l295 1389h953l-15 -68h-880z" />
<glyph unicode="G" horiz-adv-x="1552" d="M1268 115q-211 -129 -469 -129q-274 0 -437 118q-182 133 -182 396q0 88 23 190q70 332 306 522.5t576 190.5q561 0 557 -469h-75q-4 401 -494 401q-307 0 -520 -172t-277 -471q-20 -94 -20 -176q0 -236 164 -356q145 -106 393 -107q242 0 436 125q211 137 258 365l13 53 h-596l14 68h666q-6 -57 -15 -99q-63 -292 -321 -450z" />
<glyph unicode="H" horiz-adv-x="1392" d="M1219 0l147 692h-1042l-148 -692h-74l295 1389h74l-133 -631h1042l133 631h74l-295 -1389h-73z" />
<glyph unicode="I" horiz-adv-x="274" d="M102 0l295 1389h74l-295 -1389h-74z" />
<glyph unicode="J" horiz-adv-x="995" d="M455 -14q-367 0 -365 278q0 27 2 55h74q-2 -23 -2 -43q-4 -223 297 -223q197 0 296 81t140 274l209 981h74l-211 -994q-86 -409 -514 -409z" />
<glyph unicode="K" horiz-adv-x="1372" d="M1268 0l-621 752l-362 -244l-109 -508h-74l295 1389h74l-168 -793l1208 793h117l-913 -596l653 -793h-100z" />
<glyph unicode="L" horiz-adv-x="1034" d="M102 0l295 1389h74l-281 -1321h877l-14 -68h-951z" />
<glyph unicode="M" horiz-adv-x="1677" d="M1501 0l271 1268l-900 -1268h-67l-359 1268l-270 -1268h-74l295 1389h95l366 -1293l918 1293h94l-295 -1389h-74z" />
<glyph unicode="N" horiz-adv-x="1392" d="M1204 0l-753 1288l-275 -1288h-74l295 1389h86q119 -215 377 -644q254 -418 381 -641l272 1285h74l-295 -1389h-88z" />
<glyph unicode="O" horiz-adv-x="1550" d="M774 -14q-268 0 -422 120q-170 133 -170 390q0 92 23 198q70 328 299 508t565 180q266 0 424 -116q176 -129 176 -383q0 -86 -22 -189q-70 -332 -302.5 -520t-570.5 -188zM1055 1315q-303 0 -508 -163t-268 -458q-20 -94 -21 -174q0 -231 152 -354q139 -113 378 -113 q305 0 513 171t272 470q20 92 20 172q0 229 -157 346q-139 103 -381 103z" />
<glyph unicode="P" horiz-adv-x="1271" d="M840 618h-533l-131 -618h-74l295 1389h629q418 0 422 -281q0 -49 -12 -109q-41 -193 -226 -294q-157 -87 -370 -87zM1024 1321h-567l-135 -633h569q168 0 293 74q143 84 176 235q8 47 8 88q0 236 -344 236z" />
<glyph unicode="Q" horiz-adv-x="1550" d="M995 10q55 -78 176 -78h205l-14 -67h-205q-170 0 -242 129q-70 -10 -143 -10q-266 0 -420 120q-170 133 -170 390q0 92 23 198q70 330 298 510t566 180q268 0 424 -116q174 -129 174 -385q0 -86 -20 -189q-55 -262 -225.5 -442.5t-426.5 -239.5zM1055 1315 q-303 0 -508 -163t-268 -460q-20 -92 -21 -172q0 -174 92 -291q49 96 146.5 154.5t208.5 58.5q109 0 184 -59q84 -63 84 -170q0 -18 -6 -53t-6 -51q0 -20 4 -39q238 49 397.5 215t210.5 407q20 98 20 180q-2 225 -159 340q-139 103 -379 103zM903 203q0 82 -67 131 q-59 43 -146 43q-96 0 -180 -53.5t-111 -143.5q139 -129 387 -129q55 0 109 8q-4 20 -4 43q0 16 6 49.5t6 51.5z" />
<glyph unicode="R" horiz-adv-x="1314" d="M1106 676q186 -59 186 -240q0 -41 -10 -90l-74 -346h-73l71 340q8 41 8 76q0 219 -342 219h-561l-135 -635h-74l295 1389h654q408 0 407 -267q0 -43 -10 -92q-57 -270 -342 -354zM1040 1321h-583l-131 -616h551q182 0 311 71q150 84 184 248q10 41 10 76q0 221 -342 221z " />
<glyph unicode="S" horiz-adv-x="1314" d="M674 -14q-532 0 -533 348q0 51 13 110l8 35h74l-7 -26q-12 -53 -12 -101q0 -299 473 -299q190 0 330 60q178 78 213 239q6 37 6 68q0 133 -184 190q-59 18 -279 68q-252 55 -330 102q-125 74 -124 207q0 33 6 68q76 348 608 348q485 0 485 -324q0 -47 -12 -102h-74 q8 43 8 82q0 166 -137 231q-96 45 -284 45q-459 0 -521 -280q-6 -29 -6 -56q0 -115 131 -174q66 -31 230 -61q268 -51 350 -84q209 -84 209 -250q0 -39 -10 -84q-41 -190 -256 -287q-164 -73 -375 -73z" />
<glyph unicode="T" horiz-adv-x="1116" d="M877 1321l-281 -1321h-74l281 1321h-533l15 68h1136l-14 -68h-530z" />
<glyph unicode="U" horiz-adv-x="1359" d="M678 -14q-485 0 -485 362q0 78 20 172l184 869h74l-184 -867q-14 -72 -17 -133q-4 -336 422 -336q504 0 600 461l187 875h73l-184 -873q-112 -530 -690 -530z" />
<glyph unicode="V" horiz-adv-x="1286" d="M686 0h-68l-319 1389h76l299 -1291l829 1291h76z" />
<glyph unicode="W" horiz-adv-x="1986" d="M1401 0h-68l-168 786l-495 -786h-68l-297 1389h76l276 -1291l486 781l-107 510h76l277 -1291l806 1291h76z" />
<glyph unicode="X" horiz-adv-x="1236" d="M1174 0l-412 659l-696 -659h-95l754 715l-428 674h98l391 -621l658 621h96l-715 -674l443 -715h-94z" />
<glyph unicode="Y" horiz-adv-x="1282" d="M823 676l-143 -676h-74l144 676l-490 713h94l445 -644l721 644h92z" />
<glyph unicode="Z" horiz-adv-x="1282" d="M61 0l15 72l1321 1249h-996l15 68h1087l-14 -70l-1323 -1251h1073l-14 -68h-1164z" />
<glyph unicode="[" horiz-adv-x="477" d="M119 -344l393 1847h272l-14 -67h-199l-364 -1712h199l-15 -68h-272z" />
<glyph unicode="\" horiz-adv-x="716" d="M664 0l-402 1421h78l401 -1421h-77z" />
<glyph unicode="]" horiz-adv-x="477" d="M209 -344h-268l14 68h197l20 81l344 1631h-197l15 67h272z" />
<glyph unicode="^" horiz-adv-x="610" d="M649 1047l-84 198l-166 -198h-77l229 276h59l123 -276h-84z" />
<glyph unicode="_" d="M-68 -244l21 99h1108l-21 -99h-1108z" />
<glyph unicode="`" horiz-adv-x="395" d="M569 1090q-25 -14 -49 6l-186 225q-23 29 14 49q33 20 55 -6l183 -227q20 -27 -17 -47z" />
<glyph unicode="a" horiz-adv-x="1155" d="M965 0l47 225q-182 -248 -484 -248q-231 0 -331 152q-61 94 -62 225q0 68 17 144q49 236 206 376q164 150 400 150q301 0 372 -242l52 238h73l-217 -1020h-73zM733 956q-195 0 -336 -135q-133 -127 -174 -323q-16 -70 -16 -131q0 -152 88 -237t246 -85q195 0 344 131 q143 127 186 322q14 72 14 133q0 162 -93 243.5t-259 81.5z" />
<glyph unicode="b" horiz-adv-x="1155" d="M594 -20q-131 0 -227 59q-104 66 -142 184l-47 -223h-74l295 1389h74l-127 -598q170 242 473 241q186 0 293 -98t107 -279q0 -72 -19 -155q-51 -238 -207 -375q-161 -145 -399 -145zM813 965q-215 0 -354 -131q-129 -121 -176 -338q-12 -61 -13 -117q0 -154 96.5 -243 t254.5 -89q199 0 335 131q129 123 172 324q16 74 17 137q0 154 -87 240t-245 86z" />
<glyph unicode="c" d="M557 -23q-188 0 -299 91q-117 98 -117 280q0 61 15 133q53 248 224 395.5t421 147.5q154 0 250 -70q104 -78 110 -227l-74 -35q-12 264 -305 264q-215 0 -361.5 -130t-191.5 -345q-12 -61 -14 -116q0 -156 98 -240q92 -80 256 -80q154 0 274 75t177 214l63 -31 q-70 -158 -210 -242t-316 -84z" />
<glyph unicode="d" horiz-adv-x="1155" d="M965 0l47 225q-182 -248 -484 -248q-231 0 -331 152q-61 94 -62 227q0 68 17 146q51 236 206 379q166 152 402 151q301 0 373 -244l127 601h73l-295 -1389h-73zM735 965q-195 0 -338 -138q-131 -127 -174 -325q-14 -70 -14 -129q-2 -154 86 -241t246 -87q195 0 342 131 t188 326q14 70 16 131q0 162 -92 247t-260 85z" />
<glyph unicode="e" d="M213 477q-14 -70 -14 -129q0 -303 348 -303q305 0 454 250h76q-168 -317 -549 -318q-403 0 -403 359q0 74 20 162q49 233 215 379.5t400 146.5q184 0 295 -88q121 -94 121 -270q0 -61 -15 -129l-12 -58zM745 956q-190 0 -327 -112.5t-191 -298.5h850q10 53 10 102 q0 150 -93 229.5t-249 79.5z" />
<glyph unicode="f" horiz-adv-x="546" d="M477 985l-16 -84h227l-16 -70h-228l-176 -833h-73l176 833h-148l17 70h147l16 84q82 379 572 379l-14 -66q-416 0 -484 -313z" />
<glyph unicode="g" horiz-adv-x="1116" d="M467 -367q-373 0 -373 269q0 33 6 69h74q-4 -25 -4 -47q0 -223 313 -223q397 0 469 342l41 184q-82 -102 -206.5 -160.5t-258.5 -58.5q-180 0 -283.5 96.5t-103.5 270.5q0 63 15 137q49 231 209.5 371.5t392.5 140.5q125 0 219 -55q102 -61 135 -174l45 204h74l-205 -958 q-86 -408 -559 -408zM739 956q-193 0 -331 -124.5t-179 -317.5q-14 -68 -14 -125q0 -147 86 -230t238 -83q193 0 333 120.5t181 311.5q12 61 12 117q0 115 -55 202q-85 129 -271 129z" />
<glyph unicode="h" d="M895 0l141 662q8 45 8 81q0 113 -83 172q-72 49 -193 50q-178 0 -305 -111t-164 -289l-121 -565h-74l295 1389h74l-119 -562q145 205 426 205q145 0 236 -59q106 -72 106 -207q0 -39 -8 -84l-145 -682h-74z" />
<glyph unicode="i" horiz-adv-x="278" d="M393 1208q-23 0 -26 29l30 139q18 31 39 31q18 0 35 -29l-31 -143q-27 -27 -47 -27zM104 0l215 1008h74l-215 -1008h-74z" />
<glyph unicode="j" horiz-adv-x="278" d="M393 1208q-23 0 -26 29l30 139q18 31 39 31q18 0 35 -29l-31 -145q-27 -25 -47 -25zM-397 -367l14 66q418 0 492 346l202 961h74l-205 -963q-85 -410 -577 -410z" />
<glyph unicode="k" horiz-adv-x="1089" d="M958 0l-411 573l-285 -178l-84 -395h-74l295 1389h74l-192 -908l835 529l131 -2l-635 -390l445 -618h-99z" />
<glyph unicode="l" horiz-adv-x="278" d="M104 0l295 1389h74l-295 -1389h-74z" />
<glyph unicode="m" horiz-adv-x="1673" d="M1495 0l139 657q12 53 13 97q2 203 -232 202q-154 0 -264.5 -89t-142.5 -238l-134 -629h-73l139 657q12 53 12 97q0 203 -237 202q-162 0 -277 -120q-104 -106 -141 -275l-119 -561h-74l213 999h74l-37 -174q139 199 396 199q246 0 278 -203q133 203 397 203 q299 0 299 -238q0 -49 -12 -108l-143 -678h-74z" />
<glyph unicode="n" d="M895 0l139 657q10 43 10 80q0 113 -86 170q-72 49 -192 49q-178 0 -304 -109.5t-165 -285.5l-119 -561h-74l213 999h74l-39 -180q145 205 426 205q143 0 236 -59q109 -70 108 -205q0 -39 -10 -82l-143 -678h-74z" />
<glyph unicode="o" horiz-adv-x="1116" d="M553 -23q-188 0 -303 99.5t-115 283.5q0 66 17 140q49 236 219 380t407 144q190 0 301 -96q119 -102 119 -287q0 -66 -16 -141q-51 -236 -221 -379.5t-408 -143.5zM762 956q-207 0 -350.5 -124.5t-186.5 -331.5q-14 -63 -14 -121q0 -160 96 -247t262 -87q205 0 350.5 126 t188.5 329q14 68 14 127q0 162 -97 245.5t-263 83.5z" />
<glyph unicode="p" horiz-adv-x="1155" d="M594 -29q-303 0 -371 240l-119 -555h-73l286 1343h74l-47 -217q170 242 471 242q188 0 295 -96.5t107 -278.5q0 -70 -17 -149q-51 -240 -205 -381q-161 -148 -401 -148zM813 956q-201 0 -343 -125.5t-185 -326.5q-16 -82 -17 -150q0 -315 348 -315q199 0 338 133 q131 125 174 326q14 72 15 133q0 152 -87 238.5t-243 86.5z" />
<glyph unicode="q" horiz-adv-x="1155" d="M889 -344l117 551q-164 -236 -484 -236q-225 0 -325 156q-61 96 -62 227q0 68 17 146q49 229 206 372q168 152 396 152q305 0 374 -242l48 217h73l-286 -1343h-74zM893 940q-45 16 -164 16q-195 0 -334 -135q-129 -125 -170 -323q-16 -70 -16 -129q0 -111 49 -193 q84 -137 279 -137q213 0 354 125q135 121 180 334q12 63 12 118q2 123 -60 211t-130 113z" />
<glyph unicode="r" horiz-adv-x="651" d="M344 782q49 76 131 133q154 109 356 109l-14 -68q-229 0 -377 -170q-125 -143 -178 -387l-84 -399h-74l213 999h74z" />
<glyph unicode="s" horiz-adv-x="995" d="M504 -27q-371 0 -371 277q0 51 14 112h78q-12 -51 -12 -92q2 -225 309 -225q127 0 221 45q117 55 142 166q2 18 2 35q0 113 -180 155q-33 8 -199 35q-244 39 -244 203q0 27 6 57q29 135 160 215q115 70 262 70q365 0 365 -252q0 -43 -10 -92h-80q8 41 8 76 q0 197 -287 196q-119 0 -211 -49q-106 -57 -129 -164q-4 -18 -4 -34q0 -111 176 -146q29 -6 209 -39q240 -43 240 -209q0 -27 -6 -57q-33 -150 -175 -223q-116 -60 -284 -60z" />
<glyph unicode="t" horiz-adv-x="538" d="M492 881l-187 -881h-69l182 881h-203l16 69h203l66 307h73l-65 -307h207l-17 -69h-206z" />
<glyph unicode="u" d="M895 0l39 180q-150 -203 -426 -203q-150 0 -238 60q-104 72 -104 209q0 47 12 100l139 653h74l-139 -651q-10 -45 -10 -84q0 -219 280 -219q188 0 314 115q117 106 155 297l117 542h74l-213 -999h-74z" />
<glyph unicode="v" horiz-adv-x="964" d="M539 0h-74l-258 999h88l225 -915l584 915h80z" />
<glyph unicode="w" horiz-adv-x="1579" d="M1137 0h-76l-137 588l-369 -588h-74l-233 999h84l205 -913l366 596l-78 317h88l203 -913l563 913h80z" />
<glyph unicode="x" horiz-adv-x="956" d="M889 0l-314 465l-507 -465h-93l568 518l-314 481h97l272 -430l467 430h90l-518 -481l344 -518h-92z" />
<glyph unicode="y" d="M416 -367q-371 0 -371 271q0 31 6 67h74q-4 -25 -4 -47q0 -223 313 -223q397 0 469 342l29 131q-150 -205 -426 -205q-150 0 -238 62q-102 70 -102 209q0 47 10 102l141 657h74l-139 -655q-10 -47 -10 -86q0 -219 278 -219q190 0 314 115q117 109 157 299l117 546h74 l-205 -958q-86 -408 -561 -408z" />
<glyph unicode="z" horiz-adv-x="968" d="M43 0l14 68l940 864h-696l14 67h791l-14 -65l-942 -866h792l-14 -68h-885z" />
<glyph unicode="{" horiz-adv-x="716" d="M424 -344q-139 0 -139 131q0 35 10 76l98 461q25 119 -4 161q-16 25 -104 68l12 55q106 41 133 66q45 43 72 162l98 460q43 207 217 207h39l-14 -67h-37q-72 0 -107 -64q-16 -33 -36 -125l-89 -416q-29 -133 -81 -188q-27 -27 -105 -63q61 -33 78 -62q31 -57 2 -190 l-88 -414q-20 -94 -17 -127q6 -63 78 -63h37l-14 -68h-39z" />
<glyph unicode="|" horiz-adv-x="477" d="M188 -66l322 1512h74l-322 -1512h-74z" />
<glyph unicode="}" horiz-adv-x="716" d="M518 485q-43 -41 -67 -161l-99 -461q-45 -207 -221 -207h-37l15 68h34q72 0 107 63q20 37 39 127l88 414q29 135 82 190q27 29 102 62q-61 35 -76 63q-31 53 -2 188l88 416q20 88 15 125q-8 63 -78 64h-35l14 67h37q141 0 142 -133q0 -33 -9 -74l-98 -460 q-27 -121 0 -162q16 -25 107 -66l-13 -55q-108 -43 -135 -68z" />
<glyph unicode="~" horiz-adv-x="1122" d="M932 719q-63 0 -213 67.5t-193 67.5q-125 0 -180 -137h-96q37 94 118 153.5t177 59.5q59 0 206.5 -68.5t194.5 -68.5q127 0 182 141h97q-37 -100 -119 -157.5t-174 -57.5z" />
<glyph unicode="&#xa0;" />
<glyph unicode="&#xa1;" horiz-adv-x="397" d="M412 991q-37 0 -31 35l29 131q8 37 45 37t28 -37l-28 -131q-6 -35 -43 -35zM121 -195l221 1043h74l-221 -1043h-74z" />
<glyph unicode="&#xa2;" d="M555 -25q-133 0 -229 48l-68 -97h-78l94 131q-135 104 -133 293q0 59 15 133q53 248 225 395.5t420 147.5q78 0 143 -18l84 120h78l-102 -143q147 -74 159 -256l-76 -35q-8 166 -124 228l-590 -836q80 -41 196 -41q334 0 451 289l63 -31q-70 -158 -211 -243t-317 -85z M782 958q-215 0 -361.5 -130t-191.5 -345q-14 -66 -14 -121q0 -154 104 -241l580 823q-54 14 -117 14z" />
<glyph unicode="&#xa3;" horiz-adv-x="1196" d="M723 -25q-190 0 -305 100.5t-115 286.5q0 63 16 140l3 4h-156l27 69h143l39 187h-107l29 67h92l4 17q49 238 219 383t410 145q229 0 348 -157l-63 -50q-102 139 -301 140q-207 0 -351.5 -127t-187.5 -334l-4 -17h604l-29 -67h-589l-39 -187h553l-27 -69h-541l-2 -4 q-14 -66 -14 -123q0 -160 97 -248t259 -88q199 0 363 137l43 -47q-189 -158 -418 -158z" />
<glyph unicode="&#xa4;" horiz-adv-x="1196" d="M1069 397l-166 176q-102 -61 -217 -61t-188 63l-246 -178l-41 43l244 181q-37 53 -37 116q0 131 114 232l-172 182l62 43l170 -180q100 59 211 59q115 0 188 -59l248 180l41 -43l-246 -182q41 -55 41 -123q0 -127 -112 -228l167 -178zM793 1008q-104 0 -187 -56 q-88 -59 -110 -157q-4 -25 -4 -47q0 -80 65 -127q59 -43 143 -43q102 0 190.5 59t108.5 156q6 25 7 45q0 82 -70 129q-59 41 -143 41z" />
<glyph unicode="&#xa5;" horiz-adv-x="1320" d="M844 676l-21 -94h434l-14 -70h-434l-39 -186h434l-14 -68h-434l-56 -258h-73l55 258h-434l14 68h434l39 186h-434l14 70h435l20 94l-489 713h94l444 -644l721 644h92z" />
<glyph unicode="&#xa6;" horiz-adv-x="477" d="M365 762l141 663h74l-142 -663h-73zM193 -47l141 663h74l-142 -663h-73z" />
<glyph unicode="&#xa7;" horiz-adv-x="1196" d="M844 293q152 -55 151 -178q0 -23 -6 -49q-29 -135 -160 -216q-117 -72 -264 -71q-358 0 -358 248q0 43 12 94h74q-10 -41 -10 -76q0 -199 286 -199q123 0 215 52q106 57 131 168q4 20 5 38q0 104 -144 136l-303 63q-72 25 -119 78q-53 57 -53 131q0 29 10 61 q55 190 275 244q-150 55 -150 178q0 25 6 52q29 137 158 215q115 72 262 71q362 0 363 -252q0 -43 -11 -92h-73q8 41 8 76q0 201 -289 201q-121 0 -213 -52q-109 -59 -131 -167q-4 -18 -4 -35q0 -80 88 -117q45 -18 252 -61q104 -10 164 -50q119 -55 119 -170q0 -27 -7 -55 q-44 -209 -284 -266zM739 768q-258 0 -342 -156l-8 -30q-4 -23 -4 -43q0 -100 109 -154q84 -41 196 -41q131 0 223 45q115 55 140 168q-5 211 -314 211z" />
<glyph unicode="&#xa8;" horiz-adv-x="438" d="M575 1120q-35 0 -26 33l18 94q8 31 43 31q39 0 31 -31l-18 -94q-9 -33 -48 -33zM340 1120q-37 0 -29 33l19 94q8 31 45 31t28 -31l-18 -94q-8 -33 -45 -33z" />
<glyph unicode="&#xa9;" horiz-adv-x="1146" d="M686 483q-176 0 -293 84q-133 94 -133 262q0 47 10 99q43 199 224 325q170 123 378 123q172 0 293 -90q135 -98 135 -264q0 -43 -12 -92q-41 -199 -221 -326q-172 -121 -381 -121zM860 1305q-178 0 -321 -101q-154 -104 -191 -274q-8 -43 -8 -82q0 -139 111 -221 q100 -74 245 -74q178 0 324 100q156 106 190 275q10 41 11 80q0 139 -113 221q-103 76 -248 76zM735 635q-113 0 -182 51q-78 59 -78 166q0 33 8 72q27 129 128.5 203.5t236.5 74.5q233 0 223 -217h-80q0 145 -162 145q-100 0 -173.5 -55t-94.5 -151q-6 -29 -6 -54 q0 -82 59 -125q51 -39 136 -38q135 0 215 155h84q-115 -227 -314 -227z" />
<glyph unicode="&#xaa;" horiz-adv-x="774" d="M776 715l21 90q-106 -104 -265 -105q-115 0 -183 62.5t-68 175.5q0 39 10 86q31 145 133 234.5t250 89.5q156 0 215 -101l22 99h78l-135 -631h-78zM655 1278q-111 0 -186.5 -71.5t-99.5 -182.5q-23 -113 18 -180q45 -74 160 -74q109 0 190.5 72.5t104.5 181.5 q10 41 10 76q0 178 -197 178z" />
<glyph unicode="&#xab;" horiz-adv-x="800" d="M481 535l13 51l385 231l-17 -78l-293 -178l217 -180l-16 -72zM244 535l12 51l385 231l-16 -78l-293 -178l217 -180l-17 -72z" />
<glyph unicode="&#xac;" horiz-adv-x="1232" d="M1106 274l61 281h-962l12 63h1036l-73 -344h-74z" />
<glyph unicode="&#xad;" horiz-adv-x="716" d="M201 520l8 41h557l-8 -41h-557z" />
<glyph unicode="&#xae;" horiz-adv-x="1112" d="M664 483q-172 0 -291 86q-133 96 -133 262q0 45 10 97q43 199 223 325q170 123 379 123q205 0 328 -119q98 -96 98 -233q0 -45 -12 -94q-41 -203 -222 -328q-167 -119 -380 -119zM838 1305q-178 0 -322 -99q-152 -106 -188 -276q-8 -45 -9 -84q0 -141 111 -221 q98 -72 246 -72q180 0 323 100q154 104 189 275q10 43 10 84q0 141 -113 221q-100 72 -247 72zM936 915q47 -37 31 -114l-31 -148h-80l31 146q2 10 2 20q0 59 -94 60h-164l-47 -226h-78l115 541h247q160 0 160 -111q0 -18 -4 -41q-18 -84 -88 -127zM852 1120h-170l-35 -168 h160q141 0 141 109q0 59 -96 59z" />
<glyph unicode="&#xaf;" horiz-adv-x="641" d="M317 1223l9 39h530l-8 -39h-531z" />
<glyph unicode="&#xb0;" horiz-adv-x="860" d="M598 788q-106 0 -184 56q-86 63 -86 164q0 29 8 57q25 123 139 201q109 76 238 75q109 0 184 -55q88 -61 88 -164q0 -27 -6 -55q-27 -123 -138.5 -201t-242.5 -78zM702 1278q-102 0 -188 -57.5t-106 -153.5q-6 -23 -7 -45q0 -80 68 -127q59 -43 141 -43q104 0 190.5 58.5 t108.5 154.5q4 25 4 47q0 80 -67 125q-60 41 -144 41z" />
<glyph unicode="&#xb1;" horiz-adv-x="1290" d="M784 479l-73 -346h-74l74 346h-392l15 68h391l72 340h73l-71 -340h393l-14 -68h-394zM217 -6l16 69h859l-17 -69h-858z" />
<glyph unicode="&#xb2;" horiz-adv-x="802" d="M170 524q39 176 211 305q70 51 311 170q164 80 178 144q2 16 2 33q0 109 -194 108q-252 0 -303 -242h-80q68 313 391 314q266 0 266 -164q0 -25 -6 -53q-20 -98 -186 -181l-199 -98q-244 -121 -293 -266h604l-16 -70h-686z" />
<glyph unicode="&#xb3;" horiz-adv-x="872" d="M557 516q-129 0 -211 45q-106 55 -106 172q0 31 8 66l8 37h82l-12 -54q-4 -20 -4 -41q0 -154 241 -153q109 0 191 37q106 45 125 137q4 20 4 41q0 129 -219 129h-89l15 69h90q102 0 172 33q94 43 94 135q0 63 -82 95q-57 20 -135 20q-270 0 -319 -229h-80q66 301 413 301 q106 0 183 -33q102 -43 102 -137q0 -18 -4 -41q-29 -129 -166 -178q106 -45 107 -150q0 -27 -7 -55q-27 -125 -153 -191q-109 -55 -248 -55z" />
<glyph unicode="&#xb4;" horiz-adv-x="434" d="M365 1096q-16 -12 -35 -13q-39 0 -31 31q2 12 14 23l281 227q16 14 35 14q37 0 30 -32q-4 -12 -16 -25z" />
<glyph unicode="&#xb5;" d="M799 23q-39 -18 -45 -54q-18 -86 147 -86l-16 -73q-78 0 -140 26q-82 35 -81 103q0 12 2 24l4 17q-55 -10 -117 -11q-276 0 -338 205l-111 -524h-73l286 1349h74l-117 -544q-14 -72 -14 -133q0 -283 307 -283q336 0 402 305l139 655h74l-142 -657q-46 -227 -241 -319z " />
<glyph unicode="&#xb6;" horiz-adv-x="1015" d="M774 -272l338 1593h-145l-338 -1593h-74l164 774q-207 -8 -328 116q-88 90 -88 224q-2 49 10 104q43 201 224 326q172 119 383 119q8 0 14 -2h266l-352 -1661h-74z" />
<glyph unicode="&#xb7;" horiz-adv-x="428" d="M367 573q-37 0 -31 35l24 111q6 33 43 33t31 -33l-24 -111q-6 -35 -43 -35z" />
<glyph unicode="&#xb8;" horiz-adv-x="530" d="M176 -356q-78 0 -199 34l46 62q96 -33 161 -33q152 0 168 84q12 51 -96 62q-57 4 -96 -13l8 35l45 143h74l-27 -102h16q162 0 160 -100q0 -16 -4 -33q-29 -139 -256 -139z" />
<glyph unicode="&#xb9;" horiz-adv-x="587" d="M473 532l150 701l-234 -129h-137l412 233h65l-172 -805h-84z" />
<glyph unicode="&#xba;" horiz-adv-x="845" d="M571 717q-121 0 -196 57q-84 63 -84 180q0 35 8 76q31 147 145.5 230t266.5 83q123 0 200 -57q86 -63 86 -180q0 -35 -8 -76q-31 -147 -147.5 -230t-270.5 -83zM694 1282q-121 0 -211 -67.5t-114 -184.5q-8 -35 -9 -63q0 -94 68 -144q61 -45 160 -45q125 0 216 66.5 t116 185.5q6 33 6 62q0 94 -70 145q-62 45 -162 45z" />
<glyph unicode="&#xbb;" horiz-adv-x="780" d="M434 309l17 72l288 180l-213 178l17 78l286 -231l-12 -51zM197 309l16 72l289 180l-213 178l16 78l287 -231l-12 -51z" />
<glyph unicode="&#xbc;" horiz-adv-x="1671" d="M1434 274l-58 -274h-71l57 274h-551l449 553h77l-395 -491h434l105 493l71 -4l-104 -489h188l-14 -62h-188zM465 0h-78l999 1421h78zM520 526l152 717l-242 -135h-121l396 227h61l-172 -809h-74z" />
<glyph unicode="&#xbd;" horiz-adv-x="1644" d="M881 0q59 246 356 393l203 101q129 63 143 131q4 18 4 34q0 115 -198 115q-256 0 -312 -250h-69q72 311 387 312q260 0 260 -162q0 -25 -6 -53q-20 -98 -168 -172q-76 -37 -209 -107q-258 -135 -303 -281h602l-12 -61h-678zM442 0h-77l1001 1421h78zM498 526l151 717 l-239 -135h-123l395 227h61l-172 -809h-73z" />
<glyph unicode="&#xbe;" horiz-adv-x="1855" d="M1620 274l-57 -274h-72l57 274h-551l451 553h78l-398 -491h435l104 493l72 -4l-105 -489h189l-15 -62h-188zM651 0h-78l1002 1421h78zM578 512q-311 0 -312 207q0 35 8 74l9 32h69l-12 -51q-4 -23 -4 -41q0 -88 86 -129q66 -31 164 -31q111 0 196 39q106 47 125 144 q6 23 6 41q0 135 -227 135h-82l12 63h84q240 0 273 148q2 16 2 31q0 117 -221 116q-274 0 -326 -231h-70q68 295 406 295q283 0 283 -168q0 -20 -5 -43q-29 -129 -180 -182q121 -45 121 -156q0 -23 -6 -49q-25 -123 -154 -189q-106 -55 -245 -55z" />
<glyph unicode="&#xbf;" d="M741 1024q-35 0 -26 35l26 131q8 37 43 37q39 0 31 -37l-27 -131q-8 -35 -47 -35zM463 -195q-147 0 -248 58q-125 70 -125 205q0 174 168 319q82 63 242 195q135 113 162 237l14 64h76l-13 -54q-43 -201 -286 -370q-145 -100 -199 -158q-90 -98 -90 -221q0 -113 106 -166 q82 -41 209 -41q369 0 482 358l59 -43q-135 -383 -557 -383z" />
<glyph unicode="&#xc0;" horiz-adv-x="1384" d="M1143 1446q-33 -18 -49 6l-183 248q-20 29 17 49q31 25 51 -4l180 -248q23 -31 -16 -51zM1276 0l-102 449h-762l-299 -449h-86l936 1395h75l318 -1395h-80zM979 1292l-520 -774h700z" />
<glyph unicode="&#xc1;" horiz-adv-x="1384" d="M920 1456q-16 -14 -33 -14q-39 0 -33 35q4 14 16 24l287 248q16 14 33 14q37 0 29 -34q-2 -14 -15 -25zM1276 0l-102 449h-762l-299 -449h-86l936 1395h75l318 -1395h-80zM979 1292l-520 -774h700z" />
<glyph unicode="&#xc2;" horiz-adv-x="1384" d="M1167 1434l-120 223l-216 -223h-81l284 301h60l161 -301h-88zM1276 0l-102 449h-762l-299 -449h-86l936 1395h75l318 -1395h-80zM979 1292l-520 -774h700z" />
<glyph unicode="&#xc3;" horiz-adv-x="1384" d="M1161 1462q-37 0 -135 55.5t-121 55.5q-84 0 -114 -125l-56 43q12 61 68.5 105t120.5 44q33 0 130 -55t122 -55q86 0 116 123l58 -37q-20 -68 -75 -111t-114 -43zM1276 0l-102 449h-762l-299 -449h-86l936 1393h75l318 -1393h-80zM979 1290l-520 -774h700z" />
<glyph unicode="&#xc4;" horiz-adv-x="1384" d="M1124 1452q-35 0 -26 37l22 110q8 37 43 37q39 0 31 -37l-23 -110q-8 -37 -47 -37zM889 1452q-37 0 -29 37l23 110q8 37 45 37t28 -37l-22 -110q-8 -37 -45 -37zM1276 0l-102 449h-762l-299 -449h-86l936 1393h75l318 -1393h-80zM979 1290l-520 -774h700z" />
<glyph unicode="&#xc5;" horiz-adv-x="1384" d="M1006 1464q-59 0 -101.5 34t-42.5 91q0 92 80 154q61 45 133 45q59 0 102.5 -34t43.5 -91q0 -94 -80 -154q-61 -45 -135 -45zM1276 0l-102 449h-762l-299 -449h-86l936 1395h75l318 -1395h-80zM1059 1716q-47 0 -82 -32.5t-35 -79.5q0 -68 78 -68q100 0 121 90q2 14 2 27 q0 63 -84 63zM979 1292l-520 -774h700z" />
<glyph unicode="&#xc6;" horiz-adv-x="2205" d="M1194 0l147 692h-542l-768 -692h-92l1546 1389h928l-15 -68h-848l-118 -561h94v-2h645l-14 -66h-740l-133 -624h858l-14 -68h-934zM877 760h479l114 530z" />
<glyph unicode="&#xc7;" horiz-adv-x="1472" d="M1563 1110q-102 225 -455 225q-303 0 -519 -175t-278 -470q-20 -94 -20 -176q0 -227 147 -350q137 -115 373 -115q338 0 557 227l53 -40q-246 -256 -622 -256q-330 0 -482 190q-104 129 -104 324q0 88 23 188q70 332 308 526.5t578 194.5q391 0 510 -252zM690 -356 q-78 0 -201 39l50 63q94 -35 159 -35q150 0 168 88q12 55 -94 66q-59 6 -94 -10l8 34l45 154h74l-27 -111q6 2 17 2q160 0 157 -106q0 -16 -4 -37q-31 -147 -258 -147z" />
<glyph unicode="&#xc8;" horiz-adv-x="1155" d="M1022 1427q-33 -23 -53 7l-181 245q-23 31 17 52q31 23 51 -5l180 -247q23 -29 -14 -52zM102 0l297 1395h1026l-14 -68h-954l-121 -567h846l-15 -66h-845l-134 -626h965l-14 -68h-1037z" />
<glyph unicode="&#xc9;" horiz-adv-x="1155" d="M797 1434q-16 -14 -35 -15q-39 0 -31 35q2 14 14 25l287 247q16 12 33 13q37 0 31 -35q-4 -14 -17 -25zM102 0l297 1395h1026l-14 -68h-954l-121 -567h846l-15 -66h-845l-134 -626h965l-14 -68h-1037z" />
<glyph unicode="&#xca;" horiz-adv-x="1155" d="M1051 1454l-121 223l-215 -223h-82l285 301h59l164 -301h-90zM102 0l297 1395h1026l-14 -68h-954l-121 -567h846l-15 -66h-845l-134 -626h965l-14 -68h-1037z" />
<glyph unicode="&#xcb;" horiz-adv-x="1155" d="M1008 1468q-37 0 -29 37l25 111q8 37 45 37t28 -37l-24 -111q-8 -37 -45 -37zM770 1468q-35 0 -27 37l25 111q8 37 43 37q39 0 31 -37l-25 -111q-8 -37 -47 -37zM102 0l297 1393h1026l-14 -68h-954l-121 -565h846l-15 -66h-845l-134 -626h965l-14 -68h-1037z" />
<glyph unicode="&#xcc;" horiz-adv-x="274" d="M586 1458q-33 -20 -51 6l-181 246q-20 29 17 51q35 23 53 -4l180 -248q21 -28 -18 -51zM102 0l297 1395h74l-297 -1395h-74z" />
<glyph unicode="&#xcd;" horiz-adv-x="274" d="M360 1456q-16 -14 -32 -14q-39 0 -33 35q4 14 16 24l285 248q16 14 35 14q37 0 28 -34q-2 -14 -14 -25zM102 0l297 1395h74l-297 -1395h-74z" />
<glyph unicode="&#xce;" horiz-adv-x="274" d="M610 1446l-121 223l-217 -223h-82l285 301h60l163 -301h-88zM102 0l297 1395h74l-297 -1395h-74z" />
<glyph unicode="&#xcf;" horiz-adv-x="274" d="M571 1483q-35 0 -26 39l22 110q8 35 43 35q37 0 29 -35l-21 -110q-8 -39 -47 -39zM336 1483q-41 0 -33 39l23 110q8 35 49 35q35 0 26 -35l-20 -110q-8 -39 -45 -39zM102 0l297 1393h74l-297 -1393h-74z" />
<glyph unicode="&#xd0;" horiz-adv-x="1392" d="M567 0h-465l142 662h-76l14 69h76l139 658h543q553 0 553 -484q0 -96 -25 -213q-72 -336 -317 -518q-236 -174 -584 -174zM924 1321h-467l-125 -590h405l-14 -69h-406l-127 -594h398q317 0 526 155q215 164 281 469q23 109 22 199q1 430 -493 430z" />
<glyph unicode="&#xd1;" horiz-adv-x="1392" d="M1143 1450q-37 0 -134.5 55.5t-119.5 55.5q-84 0 -115 -125l-57 43q14 59 70.5 104t117.5 45q35 0 132.5 -55t121.5 -55q86 0 115 122l59 -34q-20 -68 -75.5 -112t-114.5 -44zM1204 0l-753 1292l-275 -1292h-74l297 1393h86q119 -219 375 -643t381 -646l275 1289h73 l-297 -1393h-88z" />
<glyph unicode="&#xd2;" horiz-adv-x="1550" d="M1225 1454q-31 -18 -47 6l-185 246q-6 12 -2 25q6 37 43 36q18 0 29 -14l178 -248q23 -28 -16 -51zM774 -14q-268 0 -422 123q-170 133 -170 389q0 92 23 198q70 330 299 511.5t567 181.5q268 0 424 -115q174 -131 174 -385q0 -90 -22 -193q-70 -330 -303.5 -520 t-569.5 -190zM1057 1321q-305 0 -510 -164t-268 -461q-20 -94 -19 -178q0 -227 150 -350q139 -115 378 -115q305 0 513 171t272 472q20 96 20 178q0 227 -157 345q-139 102 -379 102z" />
<glyph unicode="&#xd3;" horiz-adv-x="1550" d="M997 1468q-16 -12 -30 -12q-37 0 -31 31q4 16 16 26l285 248q29 25 55 6q27 -25 -8 -53zM774 -14q-268 0 -424 123q-168 133 -168 391q0 92 23 198q72 328 301 509.5t565 181.5q268 0 424 -115q174 -131 174 -385q0 -88 -22 -191q-70 -332 -302.5 -522t-570.5 -190z M1057 1321q-303 0 -509 -164t-269 -459q-18 -96 -19 -178q0 -229 150 -352q139 -115 378 -115q305 0 513 172t272 473q20 90 20 168q2 231 -153 351q-141 104 -383 104z" />
<glyph unicode="&#xd4;" horiz-adv-x="1550" d="M1253 1470l-120 222l-215 -222h-82l282 299h60l163 -299h-88zM774 -14q-268 0 -424 123q-168 133 -168 391q0 92 23 198q72 328 301 509.5t565 181.5q268 0 424 -115q174 -131 174 -385q0 -88 -22 -191q-70 -332 -302.5 -522t-570.5 -190zM1057 1321q-303 0 -509 -164 t-269 -459q-18 -96 -19 -178q0 -229 150 -352q139 -115 378 -115q305 0 513 172t272 473q20 90 20 168q2 231 -153 351q-141 104 -383 104z" />
<glyph unicode="&#xd5;" horiz-adv-x="1550" d="M1235 1493q-35 0 -133 55.5t-121 55.5q-78 0 -119 -125l-51 43q12 59 69.5 104t116.5 45q35 0 132.5 -55t119.5 -55q88 0 119 122l57 -36q-23 -68 -77 -111t-113 -43zM774 -14q-268 0 -422 123q-170 133 -170 389q0 92 23 198q70 330 299 511.5t567 181.5q266 0 424 -117 q174 -131 174 -385q0 -88 -22 -191q-70 -332 -302.5 -521t-570.5 -189zM1057 1319q-305 0 -510 -163t-268 -460q-20 -94 -21 -176q0 -231 152 -354q139 -113 378 -113q305 0 513 171t272 472q20 94 20 174q0 229 -155 347q-139 102 -381 102z" />
<glyph unicode="&#xd6;" horiz-adv-x="1550" d="M1210 1483q-37 0 -28 39l22 110q8 35 45 35q35 0 27 -35l-21 -110q-8 -39 -45 -39zM973 1483q-35 0 -27 39l23 110q8 35 43 35q37 0 28 -35l-20 -110q-8 -39 -47 -39zM774 -14q-268 0 -422 123q-170 133 -170 389q0 92 23 198q70 330 299 510t567 180q266 0 424 -116 q174 -131 174 -385q0 -86 -22 -189q-70 -332 -302.5 -521t-570.5 -189zM1057 1319q-305 0 -510 -163t-268 -460q-20 -94 -21 -176q0 -231 152 -354q139 -113 378 -113q305 0 513 171t272 472q20 94 20 174q0 229 -155 347q-139 102 -381 102z" />
<glyph unicode="&#xd7;" horiz-adv-x="1003" d="M829 229l-229 238l-328 -236l-41 45l328 240l-225 236l63 47l224 -238l327 238l43 -47l-325 -236l225 -244z" />
<glyph unicode="&#xd8;" horiz-adv-x="1550" d="M774 -14q-160 0 -280 43l-62 -88h-78l82 116q-252 123 -252 451q0 86 21 186q70 328 299 509t567 181q158 0 277 -38l67 96h78l-86 -123q262 -131 262 -434q0 -88 -22 -191q-70 -332 -302.5 -520t-570.5 -188zM1362 1257l-821 -1163q104 -41 247 -41q305 0 513 171 t272 470q20 100 20 185q-4 267 -231 378zM1055 1315q-303 0 -508 -163t-268 -458q-18 -86 -19 -164q0 -168 86 -288q57 -82 135 -119l819 1159q-104 33 -245 33z" />
<glyph unicode="&#xd9;" horiz-adv-x="1359" d="M1126 1438q-27 -16 -51 6l-180 248q-20 27 14 49q35 23 54 -4l180 -246q22 -30 -17 -53zM678 -14q-485 0 -485 364q0 78 20 172l186 873h74l-186 -871q-16 -78 -17 -143q0 -328 422 -328q504 0 602 463l187 879h73l-186 -877q-112 -532 -690 -532z" />
<glyph unicode="&#xda;" horiz-adv-x="1359" d="M899 1448q-16 -12 -33 -12q-37 0 -30 32q4 16 16 27l285 246q16 14 34 14q37 0 31 -35q-4 -14 -16 -24zM678 -14q-485 0 -485 364q0 78 20 172l186 873h74l-186 -871q-16 -78 -17 -143q0 -328 422 -328q504 0 602 463l187 879h73l-186 -877q-112 -532 -690 -532z" />
<glyph unicode="&#xdb;" horiz-adv-x="1359" d="M1153 1450l-121 223l-217 -223h-82l287 301h59l162 -301h-88zM678 -14q-485 0 -485 364q0 78 20 172l186 873h74l-186 -871q-16 -78 -17 -143q0 -328 422 -328q504 0 602 463l187 879h73l-186 -877q-112 -532 -690 -532z" />
<glyph unicode="&#xdc;" horiz-adv-x="1359" d="M1114 1483q-37 0 -29 39l23 110q8 35 45 35t29 -35l-23 -110q-8 -39 -45 -39zM877 1483q-35 0 -27 39l22 110q8 35 43 35q39 0 31 -35l-22 -110q-8 -39 -47 -39zM678 -14q-485 0 -485 364q0 78 20 172l186 871h74l-186 -869q-16 -78 -17 -143q0 -328 422 -328 q504 0 602 463l187 877h73l-186 -875q-112 -532 -690 -532z" />
<glyph unicode="&#xdd;" horiz-adv-x="1345" d="M897 1456q-16 -14 -33 -14q-39 0 -33 35q4 14 17 24l287 248q16 14 34 14q37 0 29 -34q-2 -14 -14 -25zM858 680l-145 -680h-74l145 680l-489 715h94l445 -647l720 647h93z" />
<glyph unicode="&#xde;" horiz-adv-x="870" d="M555 350h-303l-74 -350h-74l295 1389h74l-65 -310h305q229 0 229 -227q0 -63 -16 -141q-78 -361 -371 -361zM696 1012h-303l-127 -596h305q215 0 279 295q14 70 14 123q0 178 -168 178z" />
<glyph unicode="&#xdf;" horiz-adv-x="1034" d="M408 -61l14 67q498 0 584 408q10 49 10 92q0 162 -135 244q-113 68 -287 67l14 68q203 0 293 33q141 51 170 192q8 35 8 64q0 111 -110 149q-63 23 -201 23q-303 0 -367 -295l-223 -1053h-74l175 819h-72l14 70h72q18 90 53 217q80 309 440 309q369 0 369 -217 q0 -35 -10 -78q-53 -219 -291 -270q104 -31 170 -131.5t66 -212.5q0 -43 -11 -90q-100 -475 -671 -475z" />
<glyph unicode="&#xe0;" horiz-adv-x="1130" d="M885 1067q-31 -18 -51 4l-181 246q-23 31 15 51q33 25 55 -4l178 -248q21 -26 -16 -49zM965 0l47 225q-182 -248 -484 -248q-231 0 -331 152q-61 94 -62 227q0 68 17 146q51 236 206 379q166 152 402 151q301 0 373 -244l51 240h73l-219 -1028h-73zM735 963 q-197 0 -338 -136q-131 -127 -174 -325q-14 -70 -14 -129q-2 -154 86 -241t246 -87q195 0 342 131t188 326q14 70 16 131q0 162 -93 246t-259 84z" />
<glyph unicode="&#xe1;" horiz-adv-x="1130" d="M680 1071q-16 -12 -31 -12q-37 0 -31 33q4 14 17 24l285 248q16 14 34 14q37 0 29 -35q-2 -12 -14 -26zM989 0l47 225q-182 -248 -483 -248q-231 0 -332 152q-61 94 -61 227q0 68 16 146q51 236 207 379q166 152 401 151q301 0 373 -244l51 240h74l-219 -1028h-74z M760 963q-197 0 -338 -136q-131 -127 -174 -325q-14 -70 -15 -129q-2 -154 86.5 -241t245.5 -87q195 0 342.5 131t188.5 326q14 70 16 131q0 162 -93 246t-259 84z" />
<glyph unicode="&#xe2;" horiz-adv-x="1130" d="M936 1081l-121 222l-215 -222h-82l283 299h59l164 -299h-88zM989 0l47 225q-182 -248 -483 -248q-231 0 -332 152q-61 94 -61 227q0 68 16 146q51 236 207 379q166 152 401 151q301 0 373 -244l51 240h74l-219 -1028h-74zM760 963q-197 0 -338 -136q-131 -127 -174 -325 q-14 -70 -15 -129q-2 -154 86.5 -241t245.5 -87q195 0 342.5 131t188.5 326q14 70 16 131q0 162 -93 246t-259 84z" />
<glyph unicode="&#xe3;" horiz-adv-x="1130" d="M918 1104q-39 0 -136.5 55t-117.5 55q-80 0 -119 -124l-51 43q12 59 68 104t118 45q35 0 132 -55.5t120 -55.5q88 0 117 123l59 -37q-25 -68 -78 -110.5t-112 -42.5zM989 0l47 225q-182 -248 -483 -248q-231 0 -332 152q-61 96 -61 227q0 68 16 144q51 238 207 381 q164 150 401 149q301 0 373 -242l49 238h74l-217 -1026h-74zM760 963q-195 0 -338 -138q-133 -127 -174 -325q-14 -72 -15 -131q0 -111 48 -191q84 -133 284 -133q195 0 342.5 130t188.5 325q14 74 14 135q0 160 -93 244t-257 84z" />
<glyph unicode="&#xe4;" horiz-adv-x="1130" d="M920 1094q-37 0 -29 39l22 110q8 35 45 35t29 -35l-22 -110q-8 -39 -45 -39zM682 1094q-35 0 -27 39l23 110q8 35 43 35q39 0 31 -35l-23 -110q-8 -39 -47 -39zM989 0l47 225q-182 -248 -483 -248q-231 0 -332 152q-61 96 -61 227q0 68 16 144q49 236 207 379 q166 152 401 151q301 0 373 -242l49 238h74l-217 -1026h-74zM760 963q-195 0 -338 -138q-133 -127 -174 -325q-14 -72 -15 -131q0 -111 48 -191q84 -133 284 -133q195 0 342.5 130t188.5 325q14 74 14 135q0 160 -93 244t-257 84z" />
<glyph unicode="&#xe5;" horiz-adv-x="1130" d="M788 1110q-59 0 -102 34t-43 91q0 94 80 154q61 45 135 45q59 0 101 -34t42 -91q0 -94 -79 -154q-62 -45 -134 -45zM989 0l49 227q-184 -250 -485 -250q-231 0 -332 152q-61 94 -61 227q0 68 16 146q51 238 207 381q164 150 401 149q301 0 373 -241l51 237h74l-219 -1028 h-74zM842 1362q-47 0 -83 -32t-36 -77q0 -70 82 -69q47 0 83 31.5t36 76.5q0 70 -82 70zM760 965q-195 0 -338 -138q-131 -127 -174 -325q-14 -72 -15 -131q0 -154 88.5 -240t243.5 -86q195 0 342.5 131t188.5 326q16 74 16 135q0 160 -94 244t-258 84z" />
<glyph unicode="&#xe6;" horiz-adv-x="2015" d="M1141 477l-8 -35q-14 -66 -15 -120q0 -276 355 -277q305 0 454 250h76q-170 -317 -549 -318q-299 0 -377 209l-39 -186h-73l47 225q-182 -248 -484 -248q-231 0 -331 152q-61 94 -62 225q0 68 17 144q49 236 206 376q164 150 400 150q301 0 372 -242l52 238h73l-49 -234 q37 45 86 88q174 150 391 150q184 0 295 -88q121 -94 121 -270q0 -61 -14 -129l-12 -58zM1669 956q-178 0 -326.5 -111.5t-185.5 -283.5l-2 -16h846q10 53 10 102q0 150 -93 229.5t-249 79.5zM733 956q-195 0 -336 -135q-133 -127 -174 -323q-16 -70 -16 -131 q0 -152 88 -237t246 -85q195 0 344 131q143 127 186 322q14 72 14 133q0 162 -93 243.5t-259 81.5z" />
<glyph unicode="&#xe7;" d="M555 -31q-188 0 -299 92q-117 98 -117 281q0 63 17 135q51 248 223 397.5t422 149.5q156 0 250 -72q104 -78 110 -227l-74 -35q-12 266 -305 266q-217 0 -366 -135q-141 -127 -187 -344q-14 -63 -14 -119q0 -156 98 -239q92 -80 254 -80q156 0 275 74.5t176 216.5l65 -31 q-70 -158 -211 -244t-317 -86zM496 -356q-76 0 -199 37l47 65q96 -35 160 -35q152 0 170 88q12 55 -96 66q-57 4 -95 -12l6 34l50 154h73l-26 -109h14q160 0 158 -104q0 -16 -4 -37q-31 -147 -258 -147z" />
<glyph unicode="&#xe8;" d="M905 1065q-12 -6 -24 -6q-14 0 -27 12l-182 246q-6 12 -4 24q8 37 45 37q16 0 28 -14l181 -248q20 -28 -17 -51zM213 481q-12 -72 -12 -131q0 -305 346 -305q305 0 454 254h76q-166 -322 -549 -322q-401 0 -401 361q0 74 18 164q49 233 216 381.5t401 148.5 q184 0 295 -88q119 -96 119 -274q0 -59 -15 -129l-12 -58zM748 963q-190 0 -328.5 -114t-192.5 -300h850q10 55 10 102q0 150 -94 234q-91 78 -245 78z" />
<glyph unicode="&#xe9;" d="M965 1323l-287 -248q-18 -12 -33 -12q-37 0 -29 33q2 14 15 24l284 248q29 25 58 4q10 -10 8 -24q-2 -11 -16 -25zM213 481q-12 -72 -12 -131q0 -305 346 -305q305 0 454 254h76q-166 -322 -549 -322q-401 0 -401 361q0 74 18 164q49 233 216 381.5t401 148.5 q184 0 295 -88q119 -96 119 -274q0 -59 -15 -129l-12 -58zM748 963q-190 0 -328.5 -114t-192.5 -300h850q10 55 10 102q0 150 -94 234q-91 78 -245 78z" />
<glyph unicode="&#xea;" d="M932 1081l-121 222l-215 -222h-82l285 299h59l162 -299h-88zM213 481q-12 -72 -12 -131q0 -305 346 -305q305 0 454 254h76q-166 -322 -549 -322q-401 0 -401 361q0 74 18 164q49 233 216 381.5t401 148.5q184 0 295 -88q119 -96 119 -274q0 -59 -15 -129l-12 -58z M748 963q-190 0 -328.5 -114t-192.5 -300h850q10 55 10 102q0 150 -94 234q-91 78 -245 78z" />
<glyph unicode="&#xeb;" d="M891 1094q-35 0 -27 39l23 110q8 35 43 35q39 0 31 -35l-23 -110q-8 -39 -47 -39zM655 1094q-37 0 -28 39l22 110q8 35 45 35t29 -35l-23 -110q-8 -39 -45 -39zM213 479q-14 -72 -14 -131q0 -303 348 -303q305 0 454 252h76q-168 -319 -549 -320q-401 0 -401 361 q0 74 18 162q49 233 215 381.5t402 148.5q184 0 295 -88q119 -96 119 -272q0 -59 -15 -129l-12 -60zM748 963q-193 0 -330 -114t-191 -302h850q10 55 10 104q0 150 -94 234q-91 78 -245 78z" />
<glyph unicode="&#xec;" horiz-adv-x="278" d="M506 1067q-31 -16 -51 4l-181 246q-23 29 15 51q31 25 53 -4l180 -248q21 -29 -16 -49zM104 0l215 1008h74l-215 -1008h-74z" />
<glyph unicode="&#xed;" horiz-adv-x="278" d="M281 1065q-18 -14 -35 -14q-39 0 -31 34q2 12 14 23l287 248q16 14 33 14q37 0 31 -35q-4 -14 -17 -24zM104 0l215 1008h74l-215 -1008h-74z" />
<glyph unicode="&#xee;" horiz-adv-x="278" d="M526 1081l-108 219l-207 -219h-80l272 299h60l149 -299h-86zM104 0l215 1008h74l-215 -1008h-74z" />
<glyph unicode="&#xef;" horiz-adv-x="278" d="M498 1094q-35 0 -27 39l23 110q8 35 43 35q39 0 30 -35l-22 -110q-8 -39 -47 -39zM262 1094q-39 0 -31 39l23 110q8 35 47 35q37 0 29 -35l-23 -110q-8 -39 -45 -39zM104 0l213 1006h74l-213 -1006h-74z" />
<glyph unicode="&#xf0;" horiz-adv-x="1155" d="M965 0l47 225q-182 -248 -484 -248q-231 0 -331 152q-61 94 -62 227q0 68 17 146q51 236 206 379q166 152 402 151q301 0 373 -244l81 386h-679l14 71h680l31 144h73l-295 -1389h-73zM735 965q-195 0 -338 -138q-131 -127 -174 -325q-14 -70 -14 -129q-2 -154 86 -241 t246 -87q195 0 342 131t188 326q14 70 16 131q0 162 -92 247t-260 85z" />
<glyph unicode="&#xf1;" d="M920 1104q-37 0 -135.5 55t-120.5 55q-84 0 -115 -124l-55 43q12 57 69.5 103t116.5 46q35 0 132 -55.5t122 -55.5q86 0 115 123l59 -37q-23 -68 -76 -110.5t-112 -42.5zM895 0l141 662q8 41 8 77q0 115 -83 172q-72 51 -193 52q-178 0 -305 -110t-164 -288l-121 -565 h-74l213 1006h74l-37 -181q145 205 426 205q143 0 236 -59q106 -70 106 -205q0 -39 -8 -84l-145 -682h-74z" />
<glyph unicode="&#xf2;" horiz-adv-x="1116" d="M926 1067q-31 -18 -52 4l-180 246q-23 31 15 51q33 25 55 -4l178 -248q21 -26 -16 -49zM553 -23q-193 0 -305.5 100.5t-112.5 287.5q2 66 17 139q51 238 220 383t408 145q190 0 304 -100.5t114 -286.5q0 -66 -16 -141q-49 -238 -219 -382.5t-410 -144.5zM764 963 q-207 0 -350.5 -126t-188.5 -333q-14 -66 -14 -125q0 -158 97.5 -246t260.5 -88q205 0 350.5 127t188.5 332q14 68 14 127q0 162 -96 247t-262 85z" />
<glyph unicode="&#xf3;" horiz-adv-x="1116" d="M698 1065q-18 -14 -34 -14q-37 0 -29 34q2 12 12 23l287 248q16 14 35 14q37 0 30 -35q-4 -14 -16 -24zM553 -23q-193 0 -305.5 100.5t-112.5 287.5q2 66 17 139q51 238 220 383t408 145q190 0 304 -100.5t114 -286.5q0 -66 -16 -141q-49 -238 -219 -382.5t-410 -144.5z M764 963q-207 0 -350.5 -126t-188.5 -333q-14 -66 -14 -125q0 -158 97.5 -246t260.5 -88q205 0 350.5 127t188.5 332q14 68 14 127q0 162 -96 247t-262 85z" />
<glyph unicode="&#xf4;" horiz-adv-x="1116" d="M954 1081l-120 222l-218 -222h-81l284 299h60l163 -299h-88zM553 -23q-193 0 -305.5 100.5t-112.5 287.5q2 66 17 139q51 238 220 383t408 145q190 0 304 -100.5t114 -286.5q0 -66 -16 -141q-49 -238 -219 -382.5t-410 -144.5zM764 963q-207 0 -350.5 -126t-188.5 -333 q-14 -66 -14 -125q0 -158 97.5 -246t260.5 -88q205 0 350.5 127t188.5 332q14 68 14 127q0 162 -96 247t-262 85z" />
<glyph unicode="&#xf5;" horiz-adv-x="1116" d="M934 1104q-39 0 -137.5 55t-116.5 55q-86 0 -117 -124l-55 43q12 61 68.5 105t119.5 44q33 0 130.5 -55.5t121.5 -55.5q76 0 119 123l55 -37q-25 -68 -77 -110.5t-111 -42.5zM553 -23q-190 0 -301 99q-117 100 -117 284q0 68 17 142q51 236 220 382t408 146 q190 0 304 -100.5t114 -286.5q0 -66 -16 -141q-49 -236 -220 -380.5t-409 -144.5zM764 963q-207 0 -351.5 -127t-187.5 -334q-14 -66 -14 -123q0 -158 98.5 -246t259.5 -88q203 0 353 129q143 125 186 328q14 68 14 129q0 160 -96 246t-262 86z" />
<glyph unicode="&#xf6;" horiz-adv-x="1116" d="M911 1094q-37 0 -28 39l22 110q8 35 45 35t29 -35l-23 -110q-8 -39 -45 -39zM674 1094q-35 0 -27 39l23 110q8 35 43 35q39 0 30 -35l-22 -110q-8 -39 -47 -39zM553 -23q-190 0 -301 99q-117 100 -117 284q0 68 17 142q51 236 220 382t408 146q190 0 304 -100.5 t114 -286.5q0 -66 -16 -141q-49 -236 -220 -380.5t-409 -144.5zM764 963q-207 0 -351.5 -127t-187.5 -334q-14 -66 -14 -123q0 -158 98.5 -246t259.5 -88q203 0 353 129q143 125 186 328q14 68 14 129q0 160 -96 246t-262 86z" />
<glyph unicode="&#xf7;" horiz-adv-x="1212" d="M737 616q-35 0 -26 37l26 127q8 35 43 35q39 0 31 -35l-27 -127q-8 -37 -47 -37zM186 459l15 67h1007l-14 -67h-1008zM639 152q-35 0 -27 36l27 127q6 35 41 35q39 0 33 -35l-27 -127q-8 -36 -47 -36z" />
<glyph unicode="&#xf8;" horiz-adv-x="1116" d="M551 -25q-117 0 -201 37l-76 -108h-77l96 137q-158 106 -158 315q0 66 17 144q49 236 219 381t407 145q106 0 189 -31l92 129h78l-111 -157q170 -102 170 -330q0 -63 -14 -137q-51 -236 -221 -380.5t-410 -144.5zM1063 817q-39 57 -84 86l-586 -827q72 -33 174 -33 q207 0 355 129q143 123 186 328q12 59 12 114q0 115 -57 203zM762 958q-207 0 -350.5 -125.5t-186.5 -332.5q-14 -68 -14 -127q2 -170 127 -267l586 828q-72 24 -162 24z" />
<glyph unicode="&#xf9;" d="M903 1059q-31 -16 -51 4l-180 248q-20 29 14 49q31 25 53 -4l181 -248q20 -29 -17 -49zM895 0l39 182q-150 -205 -426 -205q-150 0 -238 62q-102 70 -102 211q0 45 10 98l141 660h74l-141 -658q-8 -45 -8 -84q0 -221 278 -221q188 0 314 117q117 109 157 299l117 547h74 l-215 -1008h-74z" />
<glyph unicode="&#xfa;" d="M680 1073q-16 -14 -33 -14q-39 0 -31 35q2 12 15 22l284 248q16 14 35 14q37 0 29 -35q-2 -16 -14 -26zM895 0l39 182q-150 -205 -426 -205q-150 0 -238 62q-102 70 -102 209q0 47 10 102l141 658h74l-141 -658q-8 -45 -8 -84q0 -221 278 -221q188 0 314 117 q117 109 157 299l117 547h74l-215 -1008h-74z" />
<glyph unicode="&#xfb;" d="M932 1081l-121 222l-215 -222h-82l285 299h59l162 -299h-88zM895 0l39 182q-150 -205 -426 -205q-150 0 -238 62q-102 70 -102 209q0 47 10 102l141 658h74l-139 -656q-10 -47 -10 -86q0 -221 278 -221q188 0 314 117q117 109 157 299l117 547h74l-215 -1008h-74z" />
<glyph unicode="&#xfc;" d="M889 1094q-35 0 -27 39l23 110q8 35 43 35q39 0 30 -35l-22 -110q-8 -39 -47 -39zM653 1094q-37 0 -28 39l22 110q8 35 45 35t29 -35l-23 -110q-8 -39 -45 -39zM895 0l39 180q-150 -203 -426 -203q-150 0 -238 62q-104 72 -102 211q0 45 10 98l139 658h74l-139 -656 q-8 -45 -8 -84q0 -221 278 -221q190 0 314 115q117 109 157 301l115 545h74l-213 -1006h-74z" />
<glyph unicode="&#xfd;" horiz-adv-x="1036" d="M946 1321l-287 -246q-18 -12 -32 -12q-39 0 -31 33q2 14 16 24l285 248q29 25 57 4q10 -10 9 -24q-3 -11 -17 -27zM416 -367q-371 0 -371 271q0 33 6 69h74q-2 -25 -2 -47q0 -225 311 -225q397 0 471 344l27 131q-150 -205 -426 -205q-147 0 -238 62q-102 72 -102 211 q0 47 12 100l139 662h74l-139 -660q-10 -45 -10 -82q0 -225 278 -225q190 0 316 117q117 111 155 301l117 549h74l-205 -963q-86 -410 -561 -410z" />
<glyph unicode="&#xfe;" horiz-adv-x="1155" d="M594 -29q-303 0 -371 244l-119 -559h-73l368 1733h74l-127 -601q170 242 471 242q186 0 294 -98t108 -281q0 -68 -19 -147q-51 -240 -205 -383q-161 -150 -401 -150zM815 963q-201 0 -344 -127t-184 -328q-18 -82 -19 -150q0 -317 348 -317q201 0 340 133 q129 125 172 328q14 70 15 131q0 154 -86 242t-242 88z" />
<glyph unicode="&#xff;" horiz-adv-x="1044" d="M874 1094q-35 0 -26 39l22 110q8 35 43 35t29 -35l-20 -110q-9 -39 -48 -39zM639 1094q-37 0 -29 39l23 110q8 35 45 35q33 0 27 -35l-21 -110q-8 -39 -45 -39zM416 -367q-371 0 -371 271q0 33 6 69h74q-2 -25 -2 -47q0 -225 311 -225q397 0 471 344l27 131 q-150 -205 -426 -205q-147 0 -238 62q-102 70 -102 209q0 47 12 102l139 660h74l-139 -658q-10 -47 -10 -86q0 -221 278 -221q190 0 316 117q117 111 155 301l117 547h74l-205 -961q-86 -410 -561 -410z" />
<glyph unicode="&#x152;" horiz-adv-x="2068" d="M965 0q-90 -16 -185 -16q-334 0 -485 190q-104 129 -107 322q0 90 23 194q70 330 302 519.5t568 189.5q68 0 133 -10h1076l-15 -68h-852q250 -141 250 -440q0 -57 -8 -123h428l-14 -68h-424q-94 -438 -484 -622h850l-14 -68h-1042zM1296 1298l-114 -540h409q8 55 8 106 q0 156 -79 270.5t-224 163.5zM1167 690l-129 -604q147 43 269 141q213 174 274 463h-414zM1227 1315q-74 16 -160 16q-303 0 -511 -171t-271 -470q-20 -94 -21 -176q0 -231 152 -352q139 -113 379 -113q86 0 168 19z" />
<glyph unicode="&#x153;" horiz-adv-x="2154" d="M1231 477q-14 -70 -14 -129q0 -303 348 -303q305 0 454 250h76q-170 -317 -549 -318q-369 0 -399 310q-88 -145 -231.5 -227.5t-313.5 -82.5q-188 0 -303 99.5t-115 283.5q0 66 17 140q49 236 219 380t407 144q168 0 275 -78q117 -84 137 -244q59 100 143 172 q172 150 394 150q184 0 295 -88q121 -94 120 -270q0 -61 -14 -129l-12 -58zM1761 956q-186 0 -325.5 -114.5t-190.5 -296.5h848q10 53 10 102q0 150 -93 229.5t-249 79.5zM811 956q-207 0 -350.5 -124.5t-186.5 -331.5q-14 -63 -14 -121q0 -160 96.5 -247t261.5 -87 q205 0 350.5 126t188.5 329q14 68 14 127q0 162 -97 245.5t-263 83.5z" />
<glyph unicode="&#x178;" horiz-adv-x="1357" d="M1122 1483q-35 0 -26 39l22 110q8 35 43 35q37 0 29 -35l-21 -110q-8 -39 -47 -39zM887 1483q-37 0 -29 39l23 110q8 35 45 35q35 0 26 -35l-20 -110q-8 -39 -45 -39zM864 680l-145 -680h-74l146 680l-492 713h96l445 -645l721 645h92z" />
<glyph unicode="&#x2c6;" horiz-adv-x="530" d="M666 1106l-125 203l-211 -203h-82l276 274h60l170 -274h-88z" />
<glyph unicode="&#x2dc;" horiz-adv-x="749" d="M752 1130q-35 0 -133.5 47.5t-122.5 47.5q-84 0 -111 -107l-57 37q10 51 71 90q55 37 111 37q35 0 133 -47t121 -47q88 0 115 104l59 -30q-20 -57 -73.5 -94.5t-112.5 -37.5z" />
<glyph unicode="&#x2000;" horiz-adv-x="894" />
<glyph unicode="&#x2001;" horiz-adv-x="1788" />
<glyph unicode="&#x2002;" horiz-adv-x="894" />
<glyph unicode="&#x2003;" horiz-adv-x="1788" />
<glyph unicode="&#x2004;" horiz-adv-x="596" />
<glyph unicode="&#x2005;" horiz-adv-x="447" />
<glyph unicode="&#x2006;" horiz-adv-x="298" />
<glyph unicode="&#x2007;" horiz-adv-x="298" />
<glyph unicode="&#x2008;" horiz-adv-x="223" />
<glyph unicode="&#x2009;" horiz-adv-x="357" />
<glyph unicode="&#x200a;" horiz-adv-x="99" />
<glyph unicode="&#x2010;" horiz-adv-x="716" d="M201 520l8 41h557l-8 -41h-557z" />
<glyph unicode="&#x2011;" horiz-adv-x="716" d="M201 520l8 41h557l-8 -41h-557z" />
<glyph unicode="&#x2012;" horiz-adv-x="716" d="M201 520l8 41h557l-8 -41h-557z" />
<glyph unicode="&#x2013;" horiz-adv-x="1013" d="M94 520l8 41h1043l-8 -41h-1043z" />
<glyph unicode="&#x2014;" horiz-adv-x="1830" d="M94 520l8 41h1860l-8 -41h-1860z" />
<glyph unicode="&#x2018;" horiz-adv-x="358" d="M399 1051q-16 -33 -51 -25q-33 8 -14 43l147 293q12 25 43 24q33 0 33 -20q0 -8 -8 -23z" />
<glyph unicode="&#x2019;" horiz-adv-x="358" d="M401 1051q-12 -25 -43 -25q-33 0 -32 21q0 8 8 22l149 293q16 33 49 24q35 -8 17 -43z" />
<glyph unicode="&#x201a;" horiz-adv-x="598" d="M221 -160q-12 -27 -39 -26q-39 0 -32 30q0 4 4 15l151 293q16 33 47 24q35 -8 19 -43z" />
<glyph unicode="&#x201c;" horiz-adv-x="546" d="M614 1051q-16 -33 -51 -25q-33 8 -14 43l147 293q12 25 43 24q33 0 33 -20q0 -8 -8 -23zM399 1051q-16 -33 -51 -25q-33 8 -14 43l147 293q12 25 43 24q33 0 33 -20q0 -8 -8 -23z" />
<glyph unicode="&#x201d;" horiz-adv-x="565" d="M616 1051q-12 -25 -43 -25q-33 0 -32 21q0 8 8 22l149 293q16 33 50 24q35 -8 16 -43zM401 1051q-12 -25 -43 -25q-33 0 -32 21q0 8 8 22l149 293q16 33 49 24q35 -8 17 -43z" />
<glyph unicode="&#x201e;" horiz-adv-x="718" d="M436 -160q-12 -27 -39 -26q-39 0 -32 30q0 4 4 15l151 293q16 33 47 24q35 -8 19 -43zM221 -160q-12 -27 -39 -26q-39 0 -32 30q0 4 4 15l151 293q16 33 47 24q35 -8 19 -43z" />
<glyph unicode="&#x2022;" horiz-adv-x="598" d="M356 512q-150 0 -141 35l49 237q8 35 158 35q152 0 143 -35l-49 -237q-8 -35 -160 -35z" />
<glyph unicode="&#x2026;" horiz-adv-x="1306" d="M1073 -4q-37 0 -31 33l25 112q6 33 43 33t31 -33l-25 -112q-6 -33 -43 -33zM686 -4q-37 0 -31 33l25 112q6 33 43 33t31 -33l-25 -112q-6 -33 -43 -33zM299 -4q-37 0 -31 33l25 112q6 33 43 33t31 -33l-25 -112q-6 -33 -43 -33z" />
<glyph unicode="&#x202f;" horiz-adv-x="357" />
<glyph unicode="&#x2039;" horiz-adv-x="602" d="M244 535l12 51l385 231l-16 -78l-293 -178l217 -180l-17 -72z" />
<glyph unicode="&#x203a;" horiz-adv-x="602" d="M197 309l16 72l289 180l-213 178l16 78l287 -231l-12 -51z" />
<glyph unicode="&#x205f;" horiz-adv-x="447" />
<glyph unicode="&#x2122;" horiz-adv-x="1615" d="M1593 711l119 563l-416 -563h-67l-189 571q-37 -184 -116 -571h-82l131 620h-211l-131 -620h-82l131 620h-303l14 70h699l194 -584l436 584h103l-146 -690h-84z" />
<glyph unicode="&#x25fc;" horiz-adv-x="1003" d="M0 1004h1004v-1004h-1004v1004z" />
</font>
</defs>
</svg>
